<?xml version="1.0" standalone="no"?>
<!DOCTYPE svg PUBLIC "-//W3C//DTD SVG 20010904//EN"
 "http://www.w3.org/TR/2001/REC-SVG-20010904/DTD/svg10.dtd">
<svg version="1.0" xmlns="http://www.w3.org/2000/svg"
 width="376.000000pt" height="386.000000pt" viewBox="0 0 376.000000 386.000000"
 preserveAspectRatio="xMidYMid meet">
<metadata>
Created by potrace 1.12, written by Peter Selinger 2001-2015
</metadata>
<g transform="translate(0.000000,386.000000) scale(0.100000,-0.100000)"
fill="#000000" stroke="none">
<path d="M755 3670 c-187 -39 -361 -161 -469 -327 -90 -140 -122 -273 -113
-471 8 -193 68 -339 194 -473 159 -168 358 -249 587 -236 191 10 337 76 477
216 95 96 147 176 186 290 35 103 45 328 18 445 -20 94 -78 211 -142 291 -100
123 -269 231 -408 260 -75 16 -264 18 -330 5z"/>
<path d="M2675 3670 c-187 -39 -361 -161 -469 -327 -90 -140 -122 -273 -113
-471 8 -193 68 -339 194 -473 159 -168 358 -249 587 -236 191 10 337 76 477
216 95 96 147 176 186 290 35 103 45 328 18 445 -20 94 -78 211 -142 291 -100
123 -269 231 -408 260 -75 16 -264 18 -330 5z"/>
<path d="M755 1705 c-70 -15 -155 -48 -205 -78 -178 -107 -313 -287 -354 -474
-23 -106 -21 -298 4 -398 54 -212 192 -380 394 -482 101 -51 200 -73 325 -73
133 0 210 18 331 77 82 40 107 59 190 142 103 104 164 202 195 316 25 91 31
312 11 405 -48 224 -206 416 -430 521 -118 55 -322 75 -461 44z"/>
<path d="M2675 1700 c-187 -39 -361 -161 -469 -327 -90 -140 -122 -273 -113
-471 8 -193 68 -339 194 -473 159 -168 358 -249 587 -236 191 10 337 76 477
216 95 96 147 176 186 290 35 103 45 328 18 445 -20 94 -78 211 -142 291 -100
123 -269 231 -408 260 -75 16 -264 18 -330 5z"/>
</g>
</svg>
