<?xml version="1.0" standalone="no"?>
<!DOCTYPE svg PUBLIC "-//W3C//DTD SVG 20010904//EN"
 "http://www.w3.org/TR/2001/REC-SVG-20010904/DTD/svg10.dtd">
<svg version="1.0" xmlns="http://www.w3.org/2000/svg"
 width="72.000000pt" height="72.000000pt" viewBox="0 0 72.000000 72.000000"
 preserveAspectRatio="xMidYMid meet">
<metadata>
Created by potrace 1.10, written by Peter Selinger 2001-2011
</metadata>
<g transform="translate(0.000000,72.000000) scale(0.070312,-0.070312)"
fill="#000000" stroke="none">
<path d="M437 1017 c1 -12 4 -16 13 -20 5 -3 8 -6 9 -7 8 -12 9 -13 14 -16 11
-6 12 -8 11 -34 0 -18 0 -21 -4 -24 -2 -2 -4 -3 -25 -3 l-23 0 -3 3 c-2 1 -4
4 -5 7 -4 6 -7 10 -12 12 -5 2 -9 6 -12 12 -4 9 -12 13 -20 11 -5 -1 -8 -4
-10 -8 -2 -4 -2 -5 -2 -65 0 -66 0 -65 7 -71 4 -4 12 -5 25 -5 13 1 18 3 22
10 2 5 2 7 2 17 1 13 1 15 6 18 3 2 5 2 24 2 23 0 26 -1 29 -6 1 -3 1 -9 1
-47 0 -39 0 -44 -1 -47 -4 -6 0 -6 -101 -6 -66 0 -93 0 -95 -1 -9 -3 -14 -13
-11 -21 4 -8 8 -10 27 -13 13 -2 17 -2 209 -2 193 0 197 0 210 2 19 3 23 5 27
13 3 8 -2 18 -11 21 -2 1 -29 1 -95 1 -101 0 -97 0 -101 6 -1 3 -1 8 -1 47 0
38 0 44 1 47 3 5 6 6 29 6 19 0 21 0 24 -2 5 -3 5 -5 6 -18 0 -10 0 -12 2 -17
4 -7 9 -9 22 -10 18 -1 26 2 30 12 2 4 2 8 2 64 0 60 0 61 -2 65 -2 4 -5 7
-10 8 -8 2 -16 -2 -20 -11 -3 -6 -7 -10 -12 -12 -5 -2 -8 -6 -12 -12 -1 -3 -3
-6 -5 -7 l-3 -3 -23 0 c-30 1 -29 -1 -29 27 -1 26 0 28 11 34 5 3 6 4 14 16 1
1 4 4 9 7 9 4 12 8 13 20 l0 7 -75 0 -76 0 0 -7z"/>
<path d="M318 706 c-2 0 -8 -1 -13 -2 -8 -1 -25 -1 -99 -1 l-89 0 0 -63 0 -63
4 0 c5 0 11 -3 13 -7 1 -1 1 -7 1 -14 1 -10 1 -12 3 -16 2 -4 6 -7 10 -8 4 -2
9 -7 10 -11 0 -2 1 -8 1 -13 0 -8 0 -10 2 -14 2 -5 4 -6 9 -9 11 -5 11 -7 12
-22 1 -18 1 -19 14 -26 7 -3 9 -7 11 -17 2 -10 5 -16 11 -22 4 -3 6 -7 10 -15
5 -10 7 -12 14 -15 7 -3 11 -11 10 -22 -2 -11 3 -20 13 -25 9 -4 9 -6 10 -21
1 -16 3 -20 12 -24 5 -2 446 -2 451 0 9 4 11 8 12 24 1 15 1 17 10 21 10 5 15
14 13 25 -1 11 3 19 10 22 7 3 9 5 14 15 4 8 6 12 10 15 6 6 9 12 11 22 2 10
4 14 11 17 13 7 13 8 14 26 1 15 1 17 12 22 5 3 7 4 9 9 2 4 2 6 2 14 0 5 1
11 1 13 1 4 6 9 10 11 4 1 8 4 10 8 2 4 2 6 3 16 0 7 0 13 1 14 2 4 8 7 13 7
l4 0 0 63 0 63 -89 0 c-75 0 -91 0 -99 2 -8 1 -35 1 -204 1 -107 0 -196 0
-198 0z"/>
<path d="M291 260 c-8 -2 -14 -7 -16 -14 -1 -6 -1 -24 1 -28 1 -5 8 -11 13
-12 5 -1 442 -1 447 0 5 1 12 7 13 12 2 4 2 22 1 28 -1 5 -5 10 -11 12 l-4 3
-220 0 c-121 0 -221 -1 -224 -1z"/>
<path d="M263 190 c-5 -2 -10 -8 -11 -15 -1 -7 -1 -24 1 -28 2 -5 7 -9 12 -11
8 -2 487 -2 495 0 5 2 10 6 12 11 2 4 2 21 1 28 -1 7 -6 13 -12 15 -5 1 -493
1 -498 0z"/>
<path d="M200 121 c0 0 -2 0 -4 0 -5 -1 -11 -7 -13 -12 -2 -4 -2 -9 -1 -66 l0
-43 331 0 330 0 0 43 c1 56 1 60 0 64 -1 5 -7 12 -12 13 -2 1 -86 1 -316 1
-173 0 -314 0 -315 0z"/>
</g>
</svg>
